<svg width="42" height="50" viewBox="0 0 42 50" fill="none" xmlns="http://www.w3.org/2000/svg">
<path d="M16.2515 27.52C21.0275 27.52 24.1025 29.522 24.1025 30.909C24.1025 32.296 21.2238 34.0625 16.7749 34.2588H15.9636L15.8982 34.3242L14.2364 34.1018C10.7689 33.6438 8.43981 32.0474 8.43981 30.8436C8.43981 29.6398 11.4755 27.52 16.2515 27.52ZM16.2515 25.4395C10.782 25.4395 6.34622 27.8864 6.34622 30.909C6.34622 33.526 9.59128 35.6589 13.9616 36.2346C13.6246 37.2835 12.9653 38.1993 12.0774 38.8516C13.9225 38.6176 15.6174 37.7143 16.8403 36.3131C22.0743 36.143 26.1437 33.7616 26.1437 30.8567C26.1437 27.9518 21.7079 25.3872 16.2384 25.3872L16.2515 25.4395Z" fill="black"/>
<path d="M39.1632 20.847H30.9066V14.6055H2.09289e-05V45.8392C-0.00346413 46.937 0.428422 47.9915 1.20103 48.7714C1.97364 49.5514 3.02394 49.9932 4.12177 50.0002H26.7848C27.3289 49.9985 27.8674 49.8894 28.3692 49.6792C28.8711 49.469 29.3265 49.1618 29.7094 48.7752C30.0923 48.3887 30.3952 47.9303 30.6006 47.4265C30.8061 46.9227 30.91 46.3833 30.9066 45.8392V43.7325H39.1632C39.4347 43.7308 39.7032 43.6756 39.9534 43.5701C40.2035 43.4646 40.4305 43.3109 40.6212 43.1177C40.812 42.9245 40.9628 42.6957 41.0652 42.4442C41.1675 42.1927 41.2192 41.9235 41.2175 41.652V22.9275C41.2192 22.656 41.1675 22.3868 41.0652 22.1353C40.9628 21.8838 40.812 21.6549 40.6212 21.4617C40.4305 21.2686 40.2035 21.1148 39.9534 21.0093C39.7032 20.9039 39.4347 20.8487 39.1632 20.847ZM28.7868 45.8392C28.7886 46.1107 28.7368 46.3798 28.6345 46.6313C28.5322 46.8828 28.3813 47.1117 28.1906 47.3049C27.9998 47.4981 27.7729 47.6518 27.5227 47.7573C27.2725 47.8628 27.004 47.918 26.7325 47.9197H4.12177C3.85027 47.918 3.58177 47.8628 3.33159 47.7573C3.08142 47.6518 2.85447 47.4981 2.66371 47.3049C2.47294 47.1117 2.3221 46.8828 2.21979 46.6313C2.11748 46.3798 2.06571 46.1107 2.06744 45.8392V16.686H28.7868V45.8392ZM30.8804 27.1146H34.976V37.5826H30.9328L30.8804 27.1146ZM39.1632 41.652H30.9328V39.5715H35.0283C35.2998 39.5698 35.5683 39.5146 35.8185 39.4091C36.0687 39.3036 36.2956 39.1499 36.4864 38.9567C36.6772 38.7635 36.828 38.5346 36.9303 38.2832C37.0326 38.0317 37.0844 37.7625 37.0827 37.491V27.0231C37.0844 26.7516 37.0326 26.4824 36.9303 26.2309C36.828 25.9794 36.6772 25.7505 36.4864 25.5573C36.2956 25.3641 36.0687 25.2104 35.8185 25.1049C35.5683 24.9994 35.2998 24.9443 35.0283 24.9426H30.9328V22.9275H39.1501L39.1632 41.652Z" fill="black"/>
<path d="M24.5081 10.8367C24.3468 10.6159 24.2271 10.3676 24.1548 10.1039C24.0957 9.92352 24.0902 9.72984 24.139 9.54636C24.1878 9.36289 24.2887 9.19749 24.4296 9.07023C24.8349 8.67679 25.1229 8.17849 25.2615 7.63091C25.4002 7.08333 25.3839 6.50801 25.2147 5.96911C25.0631 5.46606 24.819 4.99569 24.495 4.58211C24.3989 4.46308 24.2773 4.36718 24.1391 4.3015C24.001 4.23582 23.8498 4.20203 23.6968 4.20264C23.5012 4.20617 23.3105 4.26443 23.1464 4.37083C22.9822 4.47722 22.8511 4.6275 22.768 4.8046C22.6849 4.98171 22.6531 5.17855 22.6762 5.37282C22.6993 5.56709 22.7764 5.75099 22.8987 5.90368C23.0553 6.11584 23.1707 6.35552 23.2389 6.61027C23.2975 6.78659 23.3027 6.97632 23.2539 7.1556C23.205 7.33487 23.1041 7.49569 22.9641 7.61781C22.5702 8.02106 22.2947 8.52483 22.1678 9.07406C22.0409 9.62328 22.0674 10.1968 22.2444 10.732C22.3924 11.242 22.6318 11.7208 22.951 12.1452C23.1245 12.3586 23.3757 12.4944 23.6493 12.5226C23.9229 12.5508 24.1965 12.4692 24.41 12.2957C24.6234 12.1221 24.7591 11.871 24.7874 11.5973C24.8156 11.3237 24.734 11.0501 24.5604 10.8367H24.5081Z" fill="black"/>
<path d="M16.2777 10.863C16.0063 10.4331 15.8115 9.9594 15.7019 9.46293C15.5778 9.03384 15.5655 8.58011 15.6662 8.14493C15.767 7.70975 15.9775 7.30761 16.2777 6.9768C16.813 6.3812 17.1867 5.65831 17.3631 4.87716C17.5395 4.09601 17.5127 3.28268 17.2852 2.51484C17.077 1.7705 16.7356 1.07005 16.2777 0.447422C16.1506 0.262851 15.9669 0.124584 15.7544 0.0534529C15.5419 -0.0176783 15.312 -0.0178209 15.0994 0.0530465C14.8868 0.123914 14.703 0.261953 14.5757 0.446366C14.4483 0.63078 14.3844 0.851579 14.3935 1.0755C14.3925 1.30215 14.4661 1.52283 14.6028 1.70357C14.8919 2.13024 15.1045 2.60402 15.2309 3.10366C15.3551 3.53275 15.3674 3.98648 15.2666 4.42166C15.1658 4.85684 14.9553 5.25898 14.6552 5.58979C14.1198 6.18539 13.7461 6.90828 13.5697 7.68943C13.3933 8.47058 13.4202 9.28391 13.6476 10.0518C13.843 10.7937 14.1711 11.4941 14.6159 12.1192C14.712 12.2465 14.8367 12.3495 14.9798 12.42C15.123 12.4904 15.2807 12.5263 15.4402 12.5248C15.6313 12.5207 15.8176 12.4643 15.979 12.3618C16.1403 12.2594 16.2705 12.1147 16.3554 11.9434C16.4404 11.7722 16.4768 11.581 16.4608 11.3905C16.4448 11.2001 16.3769 11.0177 16.2646 10.863H16.2777Z" fill="black"/>
<path d="M8.00797 10.837C7.85294 10.619 7.73776 10.3754 7.66776 10.1173C7.60867 9.93686 7.60317 9.74318 7.65194 9.5597C7.70072 9.37623 7.80166 9.21083 7.94254 9.08357C8.34784 8.69013 8.63586 8.19183 8.77449 7.64425C8.91311 7.09667 8.89689 6.52135 8.72764 5.98245C8.57604 5.4794 8.33198 5.00903 8.00797 4.59545C7.87138 4.42933 7.68639 4.30996 7.47875 4.25394C7.27112 4.19793 7.05119 4.20807 6.84959 4.28295C6.64799 4.35783 6.47476 4.49372 6.35404 4.67169C6.23332 4.84967 6.17111 5.06086 6.17608 5.27586C6.17474 5.5189 6.25801 5.75484 6.41161 5.94319C6.56017 6.13632 6.67518 6.35307 6.75181 6.58436C6.81947 6.75648 6.8357 6.94455 6.79854 7.12572C6.76137 7.3069 6.67241 7.47339 6.54246 7.60498C6.13493 8.00248 5.84576 8.50532 5.70714 9.05747C5.56852 9.60962 5.58591 10.1894 5.75736 10.7323C5.88827 11.239 6.10994 11.7178 6.41161 12.1454C6.5064 12.2669 6.62745 12.3653 6.76568 12.4332C6.90392 12.5012 7.05575 12.537 7.20979 12.538C7.4031 12.5326 7.59114 12.4738 7.75307 12.3681C7.915 12.2624 8.04448 12.1139 8.12714 11.9391C8.20981 11.7643 8.24244 11.57 8.2214 11.3777C8.20036 11.1855 8.12649 11.0028 8.00797 10.85V10.837Z" fill="black"/>
</svg>
