<svg width="58" height="58" viewBox="0 0 58 58" fill="none" xmlns="http://www.w3.org/2000/svg">
<g clip-path="url(#clip0)">
<path d="M36.6025 18.2861C36.91 18.2861 37.1591 18.0469 37.1591 17.7517V17.0334C37.1591 16.7382 36.91 16.499 36.6025 16.499C36.295 16.499 36.0459 16.7382 36.0459 17.0334V17.7517C36.0459 18.0468 36.2951 18.2861 36.6025 18.2861Z" fill="#030002"/>
<path d="M42.6587 23.031C42.3512 23.031 42.102 23.2702 42.102 23.5654C42.102 23.8606 42.3512 24.0998 42.6587 24.0998H43.4069C43.7143 24.0998 43.9635 23.8606 43.9635 23.5654C43.9635 23.2702 43.7143 23.031 43.4069 23.031H42.6587Z" fill="#030002"/>
<path d="M29.7981 23.031C29.4906 23.031 29.2415 23.2702 29.2415 23.5654C29.2415 23.8606 29.4906 24.0998 29.7981 24.0998H30.5464C30.8539 24.0998 31.103 23.8606 31.103 23.5654C31.103 23.2702 30.8539 23.031 30.5464 23.031H29.7981Z" fill="#030002"/>
<path d="M39.0438 40.1005C38.0553 40.1005 37.2509 40.8726 37.2509 41.8216C37.2509 42.7706 38.0553 43.5427 39.0438 43.5427C40.0324 43.5427 40.8367 42.7706 40.8367 41.8216C40.8367 40.8726 40.0324 40.1005 39.0438 40.1005ZM39.0438 42.4739C38.669 42.4739 38.3642 42.1813 38.3642 41.8216C38.3642 41.4618 38.669 41.1692 39.0438 41.1692C39.4186 41.1692 39.7234 41.4618 39.7234 41.8216C39.7234 42.1813 39.4186 42.4739 39.0438 42.4739Z" fill="#030002"/>
<path d="M18.719 41.8216C18.719 42.7706 19.5233 43.5427 20.5119 43.5427C21.5005 43.5427 22.3047 42.7706 22.3047 41.8216C22.3047 40.8726 21.5005 40.1005 20.5119 40.1005C19.5233 40.1005 18.719 40.8725 18.719 41.8216ZM21.1914 41.8216C21.1914 42.1813 20.8866 42.4739 20.5119 42.4739C20.1371 42.4739 19.8322 42.1813 19.8322 41.8216C19.8322 41.4618 20.1371 41.1692 20.5119 41.1692C20.8866 41.1692 21.1914 41.4618 21.1914 41.8216Z" fill="#030002"/>
<path d="M24.2911 33.6196C24.9195 33.0325 24.9919 32.0111 24.2781 31.3442L21.9644 29.1821C21.1297 28.4025 19.7899 28.4197 18.9775 29.2209L18.5442 29.6482C18.3298 29.8598 18.3346 30.1981 18.5549 30.4038L20.7851 32.4879L18.5549 34.5719C18.4491 34.6707 18.3885 34.8059 18.3865 34.9475C18.3845 35.0892 18.4413 35.2259 18.5442 35.3275L18.9775 35.7549C19.7925 36.5586 21.1295 36.5739 21.9644 35.7935L24.2911 33.6196ZM19.7753 35.0095L19.7303 34.9651L21.9714 32.8709C22.0791 32.7703 22.1398 32.6322 22.1398 32.488C22.1398 32.3438 22.0791 32.2056 21.9714 32.1051L19.7303 30.0107L19.7753 29.9664C20.1596 29.5874 20.7932 29.5792 21.1879 29.948L23.5016 32.1101C23.7485 32.3408 23.7155 32.666 23.5146 32.8538L21.1879 35.0278C20.7951 35.3948 20.1627 35.3916 19.7753 35.0095Z" fill="#030002"/>
<path d="M36.0459 23.5655C36.0459 23.8606 36.295 24.0998 36.6025 24.0998H38.4955C38.803 24.0998 39.0522 23.8606 39.0522 23.5655C39.0522 23.2703 38.803 23.0311 38.4955 23.0311H37.1591V19.7033C37.1591 19.4081 36.91 19.1689 36.6025 19.1689C36.295 19.1689 36.0459 19.4081 36.0459 19.7033V23.5655Z" fill="#030002"/>
<path d="M17.509 18.9985H27.0937C27.4011 18.9985 27.6503 18.7594 27.6503 18.4642C27.6503 18.169 27.4011 17.9298 27.0937 17.9298H17.509C17.2016 17.9298 16.9523 18.169 16.9523 18.4642C16.9523 18.7594 17.2016 18.9985 17.509 18.9985Z" fill="#030002"/>
<path d="M15.1856 21.7592H25.1348C25.4422 21.7592 25.6914 21.52 25.6914 21.2248C25.6914 20.9296 25.4422 20.6905 25.1348 20.6905H15.1856C14.8782 20.6905 14.629 20.9296 14.629 21.2248C14.629 21.52 14.8782 21.7592 15.1856 21.7592Z" fill="#030002"/>
<path d="M20.8775 23.1523C20.5701 23.1523 20.3209 23.3914 20.3209 23.6866C20.3209 23.9818 20.5701 24.221 20.8775 24.221H25.8283C26.1357 24.221 26.3849 23.9818 26.3849 23.6866C26.3849 23.3914 26.1357 23.1523 25.8283 23.1523H20.8775Z" fill="#030002"/>
<path d="M16.1844 23.1523C15.877 23.1523 15.6278 23.3914 15.6278 23.6866C15.6278 23.9818 15.877 24.221 16.1844 24.221H18.6553C18.9628 24.221 19.212 23.9818 19.212 23.6866C19.212 23.3914 18.9628 23.1523 18.6553 23.1523H16.1844Z" fill="#030002"/>
<path d="M8.55664 31.5804H10.5925C10.8999 31.5804 11.1491 31.3412 11.1491 31.046C11.1491 30.7508 10.8999 30.5116 10.5925 30.5116H8.55664C8.24923 30.5116 8 30.7508 8 31.046C8 31.3412 8.24923 31.5804 8.55664 31.5804Z" fill="#030002"/>
<path d="M10.041 36.2875H8.55664C8.24923 36.2875 8 36.5266 8 36.8218C8 37.117 8.24923 37.3562 8.55664 37.3562H10.041C10.3484 37.3562 10.5977 37.117 10.5977 36.8218C10.5977 36.5266 10.3484 36.2875 10.041 36.2875Z" fill="#030002"/>
<path d="M16.5896 31.7621H14.6044C14.297 31.7621 14.0477 32.0013 14.0477 32.2965C14.0477 32.5916 14.297 32.8308 14.6044 32.8308H16.5896C16.897 32.8308 17.1462 32.5916 17.1462 32.2965C17.1462 32.0013 16.897 31.7621 16.5896 31.7621Z" fill="#030002"/>
<path d="M41.8444 31.0528C44.4235 29.3848 46 26.5738 46 23.5654C46 22.1355 45.6612 20.7673 44.9929 19.499C44.8541 19.2356 44.5192 19.1301 44.2449 19.2633C43.9706 19.3965 43.8606 19.718 43.9994 19.9813C44.5881 21.0988 44.8867 22.3047 44.8867 23.5654C44.8867 26.271 43.4399 28.7953 41.0839 30.2538L37.8431 26.8494C37.4667 26.4538 36.9306 26.2271 36.3726 26.2271H28.7944C28.4785 25.3743 28.3183 24.4806 28.3183 23.5654C28.3183 19.1801 32.0346 15.6126 36.6025 15.6126C38.972 15.6126 41.2331 16.5904 42.8059 18.2954C43.0096 18.5162 43.3614 18.5369 43.5917 18.3411C43.8218 18.1454 43.8432 17.8077 43.6393 17.5868C42.8216 16.7003 41.8394 15.9878 40.7568 15.4753V13.6655C40.7568 13.0078 40.1995 12.4728 39.5145 12.4728H33.6906C33.0056 12.4728 32.4482 13.0078 32.4482 13.6655V15.4748C29.3445 16.9495 27.205 20.0218 27.205 23.5654C27.205 24.4762 27.3454 25.3683 27.6219 26.2271H13.4275C12.7174 26.2271 12.1341 26.754 12.0772 27.4219H10.041C9.7336 27.4219 9.48438 27.6611 9.48438 27.9563C9.48438 28.2515 9.7336 28.4907 10.041 28.4907H12.0716V33.6557H8.55664C8.24923 33.6557 8 33.8949 8 34.1901C8 34.4853 8.24923 34.7245 8.55664 34.7245H12.0716V36.2875C11.7666 36.2902 11.5201 36.5282 11.5201 36.8216C11.5201 37.115 11.7665 37.353 12.0716 37.3557V41.1356C12.0716 41.6966 12.547 42.153 13.1313 42.153H14.629V42.525H12.8923C12.5849 42.525 12.3356 42.7642 12.3356 43.0594C12.3356 43.3546 12.5849 43.5937 12.8923 43.5937H15.1856C15.4931 43.5937 15.7423 43.3546 15.7423 43.0594V42.153H16.2502C16.4268 44.2623 18.27 45.9271 20.5119 45.9271C21.2517 45.9271 21.982 45.7418 22.6238 45.3912C22.891 45.2453 22.9842 44.919 22.8322 44.6625C22.6802 44.4059 22.3405 44.3165 22.0731 44.4623C21.5989 44.7214 21.0589 44.8584 20.5119 44.8584C18.7675 44.8584 17.3483 43.496 17.3483 41.8213C17.3483 40.1467 18.7675 38.7843 20.5119 38.7843C22.2562 38.7843 23.6754 40.1467 23.6754 41.8213C23.6754 42.2779 23.5724 42.717 23.369 43.1265C23.2367 43.3929 23.3544 43.7118 23.6319 43.8388C23.9095 43.9657 24.2416 43.8527 24.3739 43.5864C24.5995 43.1323 24.7322 42.6513 24.7734 42.153H34.7821C34.9588 44.2623 36.802 45.9271 39.0438 45.9271C41.2857 45.9271 43.1288 44.2623 43.3056 42.153H44.4514C45.3053 42.153 46 41.4861 46 40.6664V36.1584C46 35.6809 45.8153 35.2239 45.4797 34.8715L41.8444 31.0528ZM33.5615 13.6655C33.5615 13.5971 33.6194 13.5416 33.6906 13.5416H39.5145C39.5856 13.5416 39.6435 13.5971 39.6435 13.6655V15.031C38.6742 14.7123 37.6478 14.5439 36.6025 14.5439C35.5387 14.5439 34.5158 14.7148 33.5615 15.0289V13.6655H33.5615ZM37.0214 27.5705L42.8142 33.6557H38.6618C38.3544 33.6557 38.1052 33.8949 38.1052 34.1901C38.1052 34.4853 38.3544 34.7245 38.6618 34.7245H43.8316L44.658 35.5927C44.9949 35.9466 44.8533 36.3307 44.8867 36.7384H44.4576C44.1501 36.7384 43.9009 36.9775 43.9009 37.2727C43.9009 37.5679 44.1501 37.8071 44.4576 37.8071H44.8867V38.5978H41.6878C40.9596 38.0461 40.0414 37.7157 39.0439 37.7157C38.0464 37.7157 37.1283 38.0461 36.4 38.5978H30.3351V27.2959H32.7358V33.649C32.7358 34.242 33.2384 34.7245 33.8561 34.7245H36.4365C36.744 34.7245 36.9931 34.4854 36.9931 34.1902C36.9931 33.895 36.744 33.6558 36.4365 33.6558H33.8561C33.8522 33.6558 33.8491 33.6527 33.8491 33.649V27.2959H36.3727C36.6187 27.2959 36.8553 27.396 37.0214 27.5705ZM34.8374 41.0844H30.3349V39.6666H35.4054C35.1299 40.0937 34.9344 40.5727 34.8374 41.0844ZM24.1502 39.6666H29.2217V41.0844H24.7183C24.6212 40.5727 24.4257 40.0937 24.1502 39.6666ZM13.1848 39.6666H16.8734C16.5979 40.0937 16.4024 40.5727 16.3053 41.0844H13.1848V39.6666ZM17.8679 38.5978H13.1848V37.356H15.597C15.9044 37.356 16.1536 37.1168 16.1536 36.8216C16.1536 36.5265 15.9044 36.2873 15.597 36.2873H13.1848V34.7245H15.597C15.9044 34.7245 16.1536 34.4853 16.1536 34.1901C16.1536 33.8949 15.9044 33.6557 15.597 33.6557H13.1848V27.5288C13.1848 27.4003 13.2937 27.2958 13.4275 27.2958H29.2217V38.5978H23.1558C22.4275 38.0461 21.5094 37.7156 20.5119 37.7156C19.5144 37.7156 18.5962 38.0461 17.8679 38.5978ZM39.0438 44.8585C37.2994 44.8585 35.8803 43.4961 35.8803 41.8215C35.8803 40.1468 37.2994 38.7844 39.0438 38.7844C40.7883 38.7844 42.2074 40.1468 42.2074 41.8215C42.2074 43.4961 40.7883 44.8585 39.0438 44.8585ZM44.4514 41.0844H43.2503C43.1532 40.5727 42.9577 40.0937 42.6822 39.6666H44.8867V40.6665C44.8867 40.8969 44.6914 41.0844 44.4514 41.0844Z" fill="#030002"/>
</g>
<path d="M57.5 29.2C57.5 44.8264 44.7434 57.5 29 57.5C13.2566 57.5 0.5 44.8264 0.5 29.2C0.5 13.5736 13.2566 0.899963 29 0.899963C44.7434 0.899963 57.5 13.5736 57.5 29.2Z" stroke="#030002"/>
<defs>
<clipPath id="clip0">
<rect width="38" height="36.48" fill="white" transform="translate(8 10.96)"/>
</clipPath>
</defs>
</svg>
