<svg width="23" height="23" viewBox="0 0 23 23" fill="none" xmlns="http://www.w3.org/2000/svg">
<path d="M22.7315 9.7778L12.0192 0.199269C11.722 -0.0664229 11.2779 -0.0664229 10.9808 0.199269L0.268471 9.7778C-0.0586315 10.0703 -0.0913986 10.578 0.195313 10.9119C0.482024 11.2455 0.979767 11.279 1.30687 10.9864L2.13632 10.2448V22.1964C2.13632 22.6402 2.48894 23 2.92398 23H8.89344H14.1065H20.0759C20.511 23 20.8636 22.6402 20.8636 22.1964V10.2449L21.693 10.9866C21.8426 11.1201 22.0277 11.1858 22.2119 11.1858C22.4309 11.1858 22.6488 11.0932 22.8045 10.9119C23.0914 10.578 23.0587 10.0704 22.7315 9.7778ZM9.6811 21.3928V14.7732H13.3188V21.3929L9.6811 21.3928ZM19.2884 8.84245V21.3928H14.8943V13.9697C14.8943 13.5259 14.5416 13.1661 14.1067 13.1661H8.89356C8.45858 13.1661 8.10589 13.5259 8.10589 13.9697V21.3929H3.71171V8.84245C3.71171 8.84039 3.71146 8.83846 3.71146 8.83647L11.5 1.87211L19.2886 8.83641C19.2887 8.83853 19.2884 8.84039 19.2884 8.84245Z" fill="#070707"/>
<path d="M9.73566 7.52964C9.73566 7.97347 10.0883 8.33321 10.5233 8.33321H12.4767C12.9117 8.33321 13.2644 7.97347 13.2644 7.52964C13.2644 7.08582 12.9117 6.72607 12.4767 6.72607H10.5233C10.0883 6.72607 9.73566 7.08582 9.73566 7.52964Z" fill="#070707"/>
</svg>
