<svg width="60" height="59" viewBox="0 0 60 59" fill="none" xmlns="http://www.w3.org/2000/svg">
<path d="M59.5 29.32C59.5 44.9306 46.3118 57.62 30 57.62C13.6882 57.62 0.5 44.9306 0.5 29.32C0.5 13.7093 13.6882 1.01996 30 1.01996C46.3118 1.01996 59.5 13.7093 59.5 29.32Z" stroke="#030002"/>
<g clip-path="url(#clip0)">
<path d="M32.3314 17.8477H31.4972C31.1897 17.8477 30.9406 18.0869 30.9406 18.3821C30.9406 18.6773 31.1898 18.9164 31.4972 18.9164H32.3314C32.6389 18.9164 32.888 18.6773 32.888 18.3821C32.888 18.0869 32.6389 17.8477 32.3314 17.8477Z" fill="#030002"/>
<path d="M31.3789 42.1497H30.5447C30.2372 42.1497 29.9881 42.3889 29.9881 42.684C29.9881 42.9792 30.2372 43.2184 30.5447 43.2184H31.3789C31.6864 43.2184 31.9356 42.9792 31.9356 42.684C31.9356 42.3889 31.6864 42.1497 31.3789 42.1497Z" fill="#030002"/>
<path d="M29.7008 17.8583C29.3641 17.7912 29.0358 18.0399 29.0358 18.382C29.0358 18.6759 29.2833 18.9164 29.5924 18.9164C29.9006 18.9164 30.149 18.6742 30.149 18.382C30.149 18.1187 29.9492 17.9035 29.7008 17.8583Z" fill="#030002"/>
<path d="M48.0976 20.4504C48.2055 20.0624 49 19.5029 49 18.7016C49 17.9001 48.2053 17.3401 48.0976 16.953C47.981 16.534 48.3816 15.689 47.969 15.0041C47.5576 14.3218 46.5763 14.2147 46.2748 13.9251C45.9643 13.627 45.8703 12.6982 45.1509 12.2987C44.4376 11.9025 43.556 12.2871 43.1207 12.1752C42.7171 12.0717 42.1338 11.3089 41.2992 11.3089C40.4639 11.3089 39.8812 12.0717 39.4777 12.1752C39.0423 12.2873 38.1608 11.9025 37.4477 12.2987C36.7356 12.6941 36.6263 13.6348 36.3236 13.925C36.0136 14.2229 35.046 14.3131 34.6294 15.0041C34.4258 15.342 34.4208 15.7118 34.4532 16.0604H26.0327C23.8847 16.0604 22.1139 17.7186 22.1139 19.8225V28.7316C21.2926 27.8343 20.0898 27.2664 18.7506 27.2664C16.2814 27.2664 14.2725 29.1949 14.2725 31.5655V31.9157H13.405C12.7001 31.9157 12.106 32.4442 12.0524 33.1189L11.0028 46.3294C10.96 46.8705 11.4066 47.3333 11.972 47.3333H14.8291C15.1366 47.3333 15.3858 47.0941 15.3858 46.7989C15.3858 46.5037 15.1366 46.2646 14.8291 46.2646H12.1246L13.1625 33.2001C13.1721 33.0792 13.2787 32.9845 13.405 32.9845H14.2725V34.5892C14.2725 34.8843 14.5216 35.1236 14.8291 35.1236C15.1366 35.1236 15.3858 34.8843 15.3858 34.5892V32.9845H22.1156V34.5892C22.1156 34.8843 22.3647 35.1236 22.6722 35.1236C22.9797 35.1236 23.2289 34.8843 23.2289 34.5892V32.9845H24.0493C24.1917 32.9845 24.3303 33.0919 24.3424 33.2452L25.3768 46.2646H17.4268C17.1193 46.2646 16.8701 46.5038 16.8701 46.799C16.8701 47.0942 17.1193 47.3334 17.4268 47.3334H35.8909C38.0517 47.3334 39.8097 45.6457 39.8097 43.5713V42.1183C39.8097 41.8232 39.5605 41.5839 39.253 41.5839C38.9456 41.5839 38.6964 41.8232 38.6964 42.1183V43.5712C38.6964 45.0564 37.4379 46.2646 35.8909 46.2646H26.4933L26.4906 46.2301L26.4362 45.545H35.8909C37.0286 45.545 37.9469 44.6589 37.9469 43.5712V25.2682C38.1932 25.3036 38.4503 25.286 38.6964 25.2597V39.6245C38.6964 39.9196 38.9456 40.1588 39.253 40.1588C39.5605 40.1588 39.8097 39.9196 39.8097 39.6245V25.405C40.2019 25.6719 40.6736 26.0944 41.2992 26.0944C42.1344 26.0944 42.7168 25.3316 43.1207 25.228C43.5571 25.116 44.4375 25.5006 45.1507 25.1046C45.8629 24.7091 45.9722 23.7687 46.2748 23.4782C46.5853 23.1801 47.5527 23.0899 47.9689 22.3992C48.3814 21.715 47.9811 20.8681 48.0976 20.4504ZM22.1139 31.9157H15.3858V31.5655C15.3858 29.7843 16.8953 28.3351 18.7507 28.3351C20.585 28.3351 22.0802 29.7518 22.1139 31.5051V31.9157ZM23.9768 19.8226V31.9157H23.2289C23.2286 29.8389 23.2274 21.3917 23.2273 19.8226C23.2273 18.3079 24.5032 17.1292 26.0328 17.1292H34.4151C34.2087 17.4573 33.8003 17.8378 33.6525 18.3384C33.5328 18.743 33.6203 19.1169 33.8429 19.4849C33.7871 19.5332 33.7139 19.5622 33.6358 19.5622H28.2878C28.1191 19.5622 27.9765 19.4253 27.9765 19.2634V18.9218C27.9765 18.3301 27.4751 17.8487 26.8588 17.8487H26.0327C24.9023 17.8487 23.9768 18.7333 23.9768 19.8226ZM36.8336 43.5712C36.8336 44.0741 36.4091 44.4762 35.8909 44.4762H26.3513L25.4525 33.1639C25.428 32.8553 25.2943 32.5764 25.09 32.3608V19.8226C25.09 19.3206 25.518 18.9175 26.0327 18.9175L26.8631 18.9218V19.2635C26.8631 20.0176 27.5022 20.631 28.2877 20.631H33.6358C33.9415 20.631 34.2304 20.5335 34.4677 20.3683C34.6736 20.7887 34.1897 21.6694 34.6295 22.3991C35.0416 23.0828 36.0212 23.1876 36.3236 23.4782C36.4974 23.6449 36.6325 24.0867 36.8336 24.4493V43.5712ZM47.0221 20.1743C46.8424 20.8194 47.16 21.6073 47.0052 21.8639C46.8493 22.1227 45.9676 22.2616 45.4874 22.7224C45.0032 23.1874 44.8665 24.0277 44.5932 24.1795C44.3308 24.3254 43.4999 24.0246 42.8333 24.1955C42.1761 24.3641 41.6297 25.0256 41.2992 25.0256C40.9636 25.0256 40.4283 24.3657 39.7651 24.1955C39.1007 24.0252 38.2662 24.3241 38.0052 24.1795C37.7393 24.0318 37.5884 23.1808 37.1109 22.7224C36.6292 22.2598 35.7499 22.124 35.5931 21.8637C35.4406 21.611 35.7549 20.815 35.5764 20.1743C35.4014 19.546 34.7117 19.0191 34.7117 18.7016C34.7117 18.3802 35.4004 17.8637 35.5775 17.2245C35.7514 16.5912 35.4427 15.7889 35.5931 15.5394C35.7495 15.2798 36.6286 15.144 37.1109 14.6809C37.5965 14.2146 37.7325 13.3752 38.0052 13.2238C38.2682 13.0774 39.0979 13.3788 39.7652 13.2078C40.4222 13.0392 40.9688 12.3776 41.2992 12.3776C41.6347 12.3776 42.1701 13.0375 42.8333 13.2078C43.4914 13.3763 44.3328 13.0793 44.5933 13.2239C44.8629 13.3736 45.0075 14.22 45.4876 14.6809C45.9728 15.1468 46.8476 15.2777 47.0053 15.5393C47.156 15.7895 46.845 16.5931 47.022 17.2289C47.1976 17.8597 47.8867 18.3844 47.8867 18.7016C47.8867 19.0223 47.1986 19.5398 47.0221 20.1743Z" fill="#030002"/>
<path d="M44.0897 16.7128C43.5086 16.155 42.5631 16.155 41.9819 16.7128L40.5542 18.0834L40.3177 17.8563C39.7366 17.2984 38.791 17.2985 38.2099 17.8563C37.6288 18.4142 37.6288 19.322 38.2099 19.8798L39.5003 21.1187C39.7818 21.3889 40.1561 21.5378 40.5542 21.5378C40.9523 21.5378 41.3266 21.389 41.6082 21.1187L44.0898 18.7363C44.6708 18.1784 44.6708 17.2707 44.0897 16.7128ZM43.3026 17.9807L40.8211 20.363C40.6728 20.5054 40.4339 20.5037 40.2876 20.3631L38.9971 19.1242C38.85 18.983 38.85 18.7533 38.9971 18.6121C39.144 18.471 39.3833 18.4708 39.5304 18.612L40.1605 19.217C40.3776 19.4256 40.7303 19.4258 40.9478 19.217L42.769 17.4685C42.916 17.3273 43.1554 17.3272 43.3025 17.4685C43.4496 17.6097 43.4496 17.8395 43.3026 17.9807Z" fill="#030002"/>
<path d="M32.6852 36.1824H29.2731C28.4513 36.1824 27.7826 36.8242 27.7826 37.6132C27.7826 38.4022 28.4513 39.0441 29.2731 39.0441H32.6852C33.507 39.0441 34.1756 38.4022 34.1756 37.6132C34.1756 36.8242 33.507 36.1824 32.6852 36.1824ZM32.6852 37.9753H29.2731C29.0651 37.9753 28.8959 37.8129 28.8959 37.6132C28.8959 37.4135 29.0651 37.2511 29.2731 37.2511H32.6852C32.8932 37.2511 33.0624 37.4135 33.0624 37.6132C33.0624 37.8128 32.8932 37.9753 32.6852 37.9753Z" fill="#030002"/>
<path d="M31.4778 29.7249V28.8315H31.8997C32.2072 28.8315 32.4564 28.5923 32.4564 28.2971C32.4564 28.0019 32.2072 27.7627 31.8997 27.7627H31.4778V27.7151C31.4778 27.4199 31.2286 27.1807 30.9211 27.1807C30.6137 27.1807 30.3645 27.4199 30.3645 27.7151V27.7673C29.5398 27.815 28.8835 28.4724 28.8835 29.2758C28.8835 30.0793 29.5398 30.7367 30.3645 30.7844V31.6778H29.8868C29.5793 31.6778 29.3302 31.9169 29.3302 32.2121C29.3302 32.5073 29.5793 32.7465 29.8868 32.7465H30.366C30.3822 33.0278 30.6241 33.2512 30.9211 33.2512C31.2198 33.2512 31.4627 33.0254 31.4764 32.7419C32.3018 32.6949 32.9587 32.0373 32.9587 31.2334C32.9587 30.4299 32.3025 29.7726 31.4778 29.7249ZM30.3645 29.7107C30.1547 29.6684 29.9968 29.4895 29.9968 29.2758C29.9968 29.0621 30.1547 28.8833 30.3645 28.841V29.7107ZM31.4778 31.6682V30.7985C31.6875 30.8409 31.8455 31.0197 31.8455 31.2334C31.8455 31.4471 31.6875 31.626 31.4778 31.6682Z" fill="#030002"/>
<path d="M20.1883 34.5244H17.3402C17.0327 34.5244 16.7835 34.7636 16.7835 35.0588C16.7835 35.354 17.0327 35.5931 17.3402 35.5931H20.1883C20.4957 35.5931 20.7449 35.354 20.7449 35.0588C20.7449 34.7636 20.4957 34.5244 20.1883 34.5244Z" fill="#030002"/>
<path d="M30.9792 25.2694C30.0823 25.2694 29.1977 25.4954 28.4209 25.9227C28.1542 26.0695 28.0619 26.3961 28.2148 26.6521C28.3677 26.9081 28.7078 26.9967 28.9745 26.8499C29.583 26.5151 30.2762 26.3381 30.9792 26.3381C33.2066 26.3381 35.0188 28.0778 35.0188 30.2161C35.0188 32.3544 33.2066 34.0941 30.9792 34.0941C28.7517 34.0941 26.9396 32.3544 26.9396 30.2161C26.9396 29.5883 27.092 28.9881 27.3927 28.4323C27.5344 28.1703 27.4281 27.8478 27.1553 27.7118C26.8824 27.576 26.5465 27.6777 26.4047 27.9397C26.0263 28.6392 25.8263 29.4263 25.8263 30.2161C25.8263 32.9437 28.1379 35.1628 30.9792 35.1628C33.8204 35.1628 36.1321 32.9437 36.1321 30.2161C36.1321 27.4885 33.8204 25.2694 30.9792 25.2694Z" fill="#030002"/>
</g>
<defs>
<clipPath id="clip0">
<rect width="38" height="36.48" fill="white" transform="translate(11 11.0799)"/>
</clipPath>
</defs>
</svg>
