<svg xmlns="http://www.w3.org/2000/svg" viewBox="0 0 21.5 34.51"><title>seconds-09</title><g id="Слой_2" data-name="Слой 2"><g id="Слой_1-2" data-name="Слой 1"><path d="M10.75,2.26a.79.79,0,1,0,.8.79A.79.79,0,0,0,10.75,2.26ZM16.2,27H12.56a.76.76,0,0,0-.48.17l-1.33,1.11-1.33-1.1A.76.76,0,0,0,8.93,27H5.3a.75.75,0,1,0,0,1.51H8.66l1.61,1.33a.76.76,0,0,0,1,0l1.61-1.33H16.2a.75.75,0,1,0,0-1.51ZM21.28,5a.76.76,0,0,0-.54-.22H13.59V.75A.75.75,0,0,0,12.84,0H8.67a.76.76,0,0,0-.76.75V4.83H.76A.76.76,0,0,0,0,5.58V33.76a.75.75,0,0,0,.76.75h20a.76.76,0,0,0,.76-.75V5.58A.75.75,0,0,0,21.28,5ZM9.43,5.58h0V1.51h2.65V7.08H9.43ZM20,33H1.51V6.34h6.4v.75H7.16a.75.75,0,1,0,0,1.51h7.19a.75.75,0,1,0,0-1.51h-.76V6.33H20ZM9.15,14.83a2.24,2.24,0,0,0-.67,1.6A2.27,2.27,0,0,0,12.36,18a2.24,2.24,0,0,0,.67-1.6,2.27,2.27,0,0,0-3.88-1.6Zm2.36,1.6a.75.75,0,1,1-.22-.53A.75.75,0,0,1,11.51,16.43Zm-7-4.07V23.21A.75.75,0,0,0,5.3,24H16.2a.76.76,0,0,0,.76-.75V20.8a.76.76,0,0,0-1.51,0v1.65H13.92a3.17,3.17,0,0,0-3.17-3,3.18,3.18,0,0,0-3.18,3H6.06V13.11h9.38v5.12a.76.76,0,0,0,1.51,0V12.35a.75.75,0,0,0-.76-.75H5.3A.76.76,0,0,0,4.55,12.36Zm6.2,8.59a1.66,1.66,0,0,1,1.66,1.51H9.09A1.66,1.66,0,0,1,10.75,20.95Z"/></g></g></svg>