<svg width="50" height="51" viewBox="0 0 50 51" fill="none" xmlns="http://www.w3.org/2000/svg">
<path d="M49.353 43.7927L48.3062 41.0026C46.9932 38.8761 46.513 36.3281 46.9604 33.8605L45.8687 33.6634L46.9604 33.8605C47.9566 28.3464 47.9566 22.6946 46.9604 17.1804C46.5266 14.7207 47.0118 12.1854 48.3212 10.0687L48.5455 8.14288C49.0964 7.24541 49.3318 6.18542 49.2134 5.13514C49.0951 4.08486 48.63 3.10601 47.8937 2.35764C47.1574 1.60927 46.1932 1.13536 45.1577 1.01291C44.1223 0.890462 43.0764 1.12667 42.19 1.68315L40.2908 1.92577C38.1989 3.25623 35.6911 3.74318 33.2624 3.2905C27.8249 2.27621 22.2505 2.27621 16.8129 3.2905C14.3842 3.74318 11.8764 3.25623 9.78449 1.92577L7.91523 1.68315C6.8825 1.11874 5.70682 0.880668 4.53952 0.999575C3.37222 1.11848 2.26673 1.58893 1.36534 2.35035C0.623949 3.09701 0.154964 4.0771 0.0353978 5.12971C-0.0841688 6.18231 0.15279 7.24486 0.707365 8.14288L1.79901 10.0687C3.11207 12.1952 3.59222 14.7432 3.14488 17.2108C2.14894 22.7249 2.14894 28.3767 3.14488 33.8908C3.59222 36.3584 3.11207 38.9064 1.79901 41.0329L0.707365 43.7927C0.150908 44.6915 -0.0882069 45.7551 0.0291568 46.8096C0.146521 47.8641 0.613411 48.847 1.35341 49.5973C2.09341 50.3477 3.06269 50.8211 4.10261 50.9402C5.14253 51.0592 6.19149 50.8167 7.07781 50.2524L9.82936 49.1607C11.9213 47.8302 14.4291 47.3433 16.8578 47.7959C22.2953 48.8106 27.8698 48.8106 33.3073 47.7959C35.736 47.3433 38.2437 47.8302 40.3357 49.1607L43.0872 50.2524C43.973 50.7655 45.0013 50.9669 46.0118 50.8253C47.0223 50.6837 47.9582 50.207 48.6735 49.4695C49.3889 48.732 49.8434 47.7753 49.9663 46.7484C50.0892 45.7215 49.8736 44.6823 49.353 43.7927ZM47.1697 47.9779C46.7874 48.377 46.2808 48.6298 45.7357 48.6934C45.1906 48.757 44.6405 48.6274 44.1789 48.3267L41.4273 47.2349C38.8874 45.6287 35.8504 45.0344 32.9035 45.5669C27.7426 46.5272 22.4524 46.5272 17.2914 45.5669C14.3156 45.0095 11.2418 45.6047 8.67789 47.2349L5.92634 48.3267C5.46499 48.6469 4.90762 48.7932 4.35098 48.7402C3.79435 48.6871 3.27361 48.4381 2.87916 48.0363C2.48472 47.6345 2.24148 47.1054 2.19168 46.5407C2.14188 45.9761 2.28866 45.4115 2.60653 44.9452L3.68323 42.155C5.28908 39.5489 5.87582 36.428 5.32818 33.4056C4.39284 28.1967 4.39284 22.8594 5.32818 17.6505C5.87195 14.633 5.28535 11.5182 3.68323 8.91623L2.60653 6.94495C2.37985 6.57838 2.25396 6.15701 2.24192 5.7245C2.22987 5.29199 2.33211 4.86409 2.53804 4.48513C2.74397 4.10617 3.04609 3.78995 3.41309 3.56924C3.7801 3.34852 4.19864 3.23134 4.62534 3.22985C5.34867 3.22474 6.06731 3.3479 6.74882 3.59378L8.64798 3.82123C11.1997 5.45429 14.2617 6.06012 17.2316 5.51956C22.412 4.55176 27.7231 4.55176 32.9035 5.51956C35.8794 6.07545 38.9526 5.48031 41.5171 3.85156L43.3714 3.60894C43.8296 3.32448 44.3689 3.20468 44.9024 3.26883C45.4359 3.33297 45.9326 3.57734 46.3125 3.96256C46.6924 4.34779 46.9334 4.85146 46.9967 5.39246C47.0599 5.93347 46.9418 6.48032 46.6613 6.94495L46.3622 8.87074C44.7695 11.4933 44.2039 14.6259 44.7771 17.6505C45.7233 22.889 45.7233 28.2581 44.7771 33.4966C44.2194 36.5017 44.7844 39.6097 46.3622 42.2157L47.4987 44.9452C47.7971 45.4116 47.9274 45.9683 47.8675 46.521C47.8075 47.0737 47.561 47.5884 47.1697 47.9779ZM34.3989 13.4957C33.25 13.4989 32.1279 13.8479 31.1749 14.4985C30.2218 15.1491 29.4806 16.072 29.0454 17.1501C26.4881 16.0801 23.6171 16.0801 21.0599 17.1501C20.6664 16.2149 20.0401 15.3994 19.2423 14.7835C18.4445 14.1676 17.5026 13.7725 16.5088 13.6368C15.5151 13.5012 14.5037 13.6297 13.5737 14.0097C12.6436 14.3897 11.8269 15.0083 11.2036 15.8047C10.5803 16.6011 10.1717 17.5481 10.018 18.5528C9.86421 19.5576 9.97053 20.5856 10.3265 21.5361C10.6825 22.4866 11.2759 23.327 12.0486 23.975C12.8213 24.623 13.7468 25.0562 14.7343 25.2324C14.4707 26.7581 14.5396 28.3239 14.9362 29.8197C15.3328 31.3156 16.0475 32.7053 17.03 33.8914C18.0126 35.0774 19.2392 36.031 20.6239 36.6853C22.0085 37.3395 23.5176 37.6785 25.0451 37.6785C26.5727 37.6785 28.0818 37.3395 29.4664 36.6853C30.851 36.031 32.0777 35.0774 33.0603 33.8914C34.0428 32.7053 34.7575 31.3156 35.1541 29.8197C35.5507 28.3239 35.6196 26.7581 35.356 25.2324C36.8909 25.1037 38.3124 24.362 39.308 23.1704C40.3036 21.9789 40.7916 20.4352 40.6647 18.8788C40.5378 17.3224 39.8063 15.8809 38.6313 14.8713C37.4562 13.8618 35.9338 13.367 34.3989 13.4957ZM34.3989 22.9881H34.0699C33.8815 22.9691 33.6915 22.9988 33.5174 23.0744C33.3434 23.15 33.1911 23.269 33.0746 23.4204C32.9582 23.5717 32.8814 23.7505 32.8515 23.9401C32.8216 24.1297 32.8395 24.3238 32.9035 24.5045C33.297 25.757 33.3936 27.0859 33.1853 28.3833C32.977 29.6807 32.4697 30.91 31.7048 31.9712C30.9398 33.0324 29.9387 33.8957 28.7828 34.4907C27.627 35.0858 26.3489 35.396 25.0526 35.396C23.7563 35.396 22.4783 35.0858 21.3224 34.4907C20.1665 33.8957 19.1654 33.0324 18.4005 31.9712C17.6355 30.91 17.1283 29.6807 16.92 28.3833C16.7117 27.0859 16.8082 25.757 17.2017 24.5045C17.2617 24.3326 17.28 24.1486 17.2551 23.9681C17.2302 23.7875 17.1629 23.6157 17.0588 23.467C16.9547 23.3184 16.8169 23.1973 16.657 23.1139C16.4971 23.0306 16.3198 22.9874 16.14 22.9881H15.7063C15.0222 22.9881 14.3526 22.788 13.7777 22.4121C13.2028 22.0361 12.7469 21.5 12.4647 20.8681C12.1824 20.2362 12.0858 19.5352 12.1863 18.849C12.2868 18.1628 12.5802 17.5206 13.0313 16.9991C13.4825 16.4776 14.0723 16.0991 14.7302 15.9087C15.388 15.7184 16.0861 15.7243 16.7407 15.9259C17.3953 16.1274 17.9787 16.516 18.4212 17.045C18.8637 17.5741 19.1464 18.2213 19.2355 18.9091C19.2561 19.0965 19.323 19.2756 19.43 19.4298C19.537 19.5841 19.6805 19.7085 19.8474 19.7917C20.0144 19.8748 20.1993 19.9139 20.385 19.9054C20.5708 19.8969 20.7515 19.8411 20.9103 19.7431C22.1695 18.997 23.6017 18.6037 25.0601 18.6037C26.5185 18.6037 27.9507 18.997 29.2099 19.7431C29.3687 19.8411 29.5494 19.8969 29.7352 19.9054C29.9209 19.9139 30.1058 19.8748 30.2727 19.7917C30.4397 19.7085 30.5832 19.5841 30.6902 19.4298C30.7971 19.2756 30.8641 19.0965 30.8847 18.9091C30.9739 18.2207 31.2571 17.5729 31.7002 17.0436C32.1434 16.5143 32.7277 16.1258 33.3831 15.9248C34.0385 15.7238 34.7372 15.7188 35.3954 15.9103C36.0536 16.1019 36.6433 16.4819 37.0938 17.0048C37.5443 17.5278 37.8365 18.1713 37.9353 18.8584C38.0341 19.5455 37.9353 20.2469 37.6509 20.8785C37.3664 21.5101 36.9083 22.0451 36.3315 22.4193C35.7547 22.7934 35.0837 22.991 34.3989 22.9881Z" fill="black"/>
</svg>
