<svg width="40" height="40" viewBox="0 0 40 40" fill="none" xmlns="http://www.w3.org/2000/svg">
<path d="M20 40C31.0457 40 40 31.0457 40 20C40 8.95431 31.0457 0 20 0C8.95431 0 0 8.95431 0 20C0 31.0457 8.95431 40 20 40Z" fill="#7056B9"/>
<path d="M30.6281 11.2317C30.2719 10.8551 29.8438 10.6666 29.3434 10.6666H11.1524C10.6521 10.6666 10.224 10.8551 9.86757 11.2317C9.51133 11.6083 9.33328 12.0609 9.33328 12.5898V25.6667C9.33328 26.1957 9.51133 26.6482 9.86757 27.0249C10.224 27.4015 10.6521 27.5896 11.1524 27.5896H17.3375C17.3375 27.894 17.2768 28.2068 17.1555 28.5271C17.0343 28.8476 16.913 29.128 16.7917 29.3683C16.6705 29.6088 16.6099 29.7849 16.6099 29.897C16.6099 30.1053 16.6818 30.286 16.8259 30.4378C16.9698 30.5903 17.1404 30.6666 17.3375 30.6666H23.1586C23.3557 30.6666 23.5263 30.5903 23.6702 30.4378C23.8144 30.286 23.8864 30.1053 23.8864 29.897C23.8864 29.7931 23.8256 29.6187 23.7043 29.3744C23.583 29.1302 23.4617 28.8454 23.3406 28.5212C23.2193 28.1966 23.1586 27.8861 23.1586 27.5896H29.3437C29.8439 27.5896 30.2719 27.4015 30.6281 27.0249C30.9845 26.6482 31.1626 26.1957 31.1626 25.6667V12.5898C31.1627 12.0609 30.9845 11.6083 30.6281 11.2317ZM29.7073 22.5897C29.7073 22.6939 29.6713 22.7839 29.5993 22.8601C29.5273 22.9361 29.442 22.9741 29.3434 22.9741H11.1524C11.0539 22.9741 10.9686 22.9361 10.8966 22.8601C10.8247 22.7836 10.7886 22.6939 10.7886 22.5897V12.5898C10.7886 12.4856 10.8245 12.3955 10.8966 12.3194C10.9687 12.2434 11.054 12.2052 11.1524 12.2052H29.3437C29.4421 12.2052 29.5275 12.2433 29.5993 12.3194C29.6713 12.3955 29.7073 12.4856 29.7073 12.5898V22.5897Z" fill="white"/>
</svg>
