<svg xmlns="http://www.w3.org/2000/svg" viewBox="0 0 31.5 35.44"><title>seconds-10</title><g id="Слой_2" data-name="Слой 2"><g id="Слой_1-2" data-name="Слой 1"><path d="M30.84,4.77H23.09V.65A.66.66,0,0,0,22.43,0H8.93a.66.66,0,0,0-.66.65V4.77H.66A.66.66,0,0,0,0,5.42V25.16a.66.66,0,0,0,.66.65H8.28v9a.66.66,0,0,0,.66.65h13.5a.66.66,0,0,0,.66-.65v-9h7.75a.66.66,0,0,0,.66-.65V5.42A.66.66,0,0,0,30.84,4.77Zm-7.75,1.3h2.09V10H23.09ZM9.59,1.3H21.78V2.6H9.59Zm0,2.6H21.78V10H9.59ZM6.32,6.08h2V10h-2Zm0,5.22H25.18v.52H6.32Zm2,13.22h-2V20.42h2Zm13.5,9.62H9.59V20.42H21.78Zm3.41-9.62H23.09V20.42h2.09Zm5,0H26.5V19.77a.66.66,0,0,0-.66-.65H5.66a.66.66,0,0,0-.66.65v4.74H1.32V6.08H5v6.39a.66.66,0,0,0,.66.65H25.84a.66.66,0,0,0,.66-.65V6.08h3.69ZM6.36,15.25a.7.7,0,1,0,.7.7A.7.7,0,0,0,6.36,15.25Zm3.51,0a.7.7,0,1,0,.7.7A.7.7,0,0,0,9.87,15.25Zm15.27,0a.7.7,0,1,0,.7.7A.7.7,0,0,0,25.14,15.25ZM10.93,30.78V31l0,0,0,0,0,0,0,0,0,0,0,0,0,0,0,0h0l.08,0h0l.08,0h0l.09,0h8.32a.66.66,0,0,0,.66-.65V24a.66.66,0,0,0-.66-.65H11.58a.66.66,0,0,0-.66.65v6.74Zm1.94-.71,1.56-2.15,1.51,2.15Zm4.67,0h0l-.33-.47.34-.44.73.91Zm-5.29-5.38h6.89V29l-1.08-1.35a.66.66,0,0,0-.52-.25h0a.66.66,0,0,0-.52.25l-.6.78L15,26.41a.66.66,0,0,0-1.08,0l-1.65,2.28Z"/></g></g></svg>