<svg width="50" height="51" viewBox="0 0 50 51" fill="none" xmlns="http://www.w3.org/2000/svg">
<path d="M49.1666 9.30469H29.1666C28.7083 9.30469 28.3333 9.67977 28.3333 10.1382V17.6398C28.3333 18.0982 28.7083 18.4733 29.1666 18.4733C29.2604 18.4733 29.3437 18.4628 29.4271 18.4316L30.4791 18.0773C31.6146 17.7023 32.8437 18.3274 33.2083 19.4631C33.5729 20.5987 32.9583 21.8281 31.8229 22.1928C31.3854 22.3387 30.9166 22.3387 30.4791 22.1928L29.4271 21.8385C28.9896 21.6927 28.5208 21.9323 28.375 22.3699C28.3437 22.4533 28.3333 22.547 28.3333 22.6304V29.2984H21.6666C21.2083 29.2984 20.8333 29.6735 20.8333 30.1319C20.8333 30.2257 20.8437 30.3091 20.875 30.3924L21.2291 31.4447C21.6041 32.5804 20.9791 33.8098 19.8437 34.1745C18.7083 34.5495 17.4791 33.9244 17.1146 32.7887C16.9687 32.3512 16.9687 31.8823 17.1146 31.4447L17.4687 30.3924C17.6146 29.9548 17.375 29.486 16.9375 29.3401C16.8541 29.3089 16.7604 29.2984 16.6771 29.2984H9.16665C8.70831 29.2984 8.33331 29.6735 8.33331 30.1319V50.1361C8.33331 50.5945 8.70831 50.9696 9.16665 50.9696H49.1666C49.625 50.9696 50 50.5945 50 50.1361V10.1382C50 9.67977 49.625 9.30469 49.1666 9.30469ZM28.375 42.3845C28.3437 42.4678 28.3333 42.5616 28.3333 42.645V49.313H9.99998V30.9759H15.5104C14.875 32.9971 15.9896 35.1538 18.0104 35.7894C20.0312 36.4249 22.1875 35.3101 22.8229 33.2889C23.0625 32.5387 23.0625 31.7364 22.8229 30.9863H28.3333V37.6543C28.3333 38.1128 28.7083 38.4879 29.1666 38.4879C29.2604 38.4879 29.3437 38.4774 29.4271 38.4462L30.4791 38.0919C31.6146 37.7169 32.8437 38.342 33.2083 39.4776C33.5729 40.6133 32.9583 41.8427 31.8229 42.2074C31.3854 42.3532 30.9166 42.3532 30.4791 42.2074L29.4271 41.8531C28.9896 41.7073 28.5208 41.9469 28.375 42.3845ZM48.3333 49.313H30V43.8015C32.0208 44.437 34.1771 43.3222 34.8125 41.3009C35.4479 39.2797 34.3333 37.123 32.3125 36.4874C31.5625 36.2478 30.7604 36.2478 30.0104 36.4874V30.9759H36.6771C37.1354 30.9759 37.5104 30.6008 37.5104 30.1424C37.5104 30.0486 37.5 29.9652 37.4687 29.8819L37.1146 28.8296C36.7396 27.6939 37.3646 26.4645 38.5 26.0999C39.6354 25.7352 40.8646 26.3499 41.2291 27.4856C41.375 27.9231 41.375 28.392 41.2291 28.8296L40.875 29.8819C40.7291 30.3195 40.9687 30.7883 41.4062 30.9342C41.4896 30.9655 41.5833 30.9759 41.6666 30.9759H48.3333V49.313ZM48.3333 29.3089H42.8229C43.4583 27.2876 42.3437 25.1309 40.3229 24.4954C38.3021 23.8598 36.1458 24.9746 35.5104 26.9959C35.2708 27.746 35.2708 28.5483 35.5104 29.2984H30V23.7869C31.1562 24.1619 32.4271 23.964 33.4062 23.2451C35.125 22.0157 35.5312 19.6193 34.3021 17.9002C33.3333 16.5354 31.5937 15.9623 30 16.4833V10.9717H48.3333V29.3089Z" fill="black"/>
<path d="M23.9688 8.14831C23.2188 7.90867 22.4167 7.90867 21.6667 8.14831V1.80323C21.6667 1.3448 21.2917 0.969727 20.8333 0.969727H0.833333C0.375 0.969727 0 1.3448 0 1.80323V21.8074C0 22.2658 0.375 22.6409 0.833333 22.6409H7.17708C6.54167 24.6622 7.65625 26.8189 9.67708 27.4544C11.6979 28.09 13.8542 26.9751 14.4896 24.9539C14.7292 24.2037 14.7292 23.4015 14.4896 22.6513H20.8333C21.2917 22.6513 21.6667 22.2763 21.6667 21.8178V15.4727C23.6875 16.1083 25.8438 14.9935 26.4792 12.9722C27.1146 10.9406 25.9896 8.78385 23.9688 8.14831ZM23.4896 13.8682C23.0521 14.0141 22.5833 14.0141 22.1458 13.8682L21.0938 13.514C20.6562 13.3681 20.1875 13.6078 20.0417 14.0454C20.0104 14.1287 20 14.2225 20 14.3058V20.9739H13.3333C12.875 20.9739 12.5 21.349 12.5 21.8074C12.5 21.9012 12.5104 21.9845 12.5417 22.0679L12.8958 23.1202C13.2708 24.2558 12.6458 25.4853 11.5104 25.8499C10.375 26.225 9.14583 25.5999 8.78125 24.4642C8.63542 24.0266 8.63542 23.5578 8.78125 23.1202L9.13542 22.0679C9.28125 21.6303 9.04167 21.1614 8.60417 21.0156C8.52083 20.9843 8.42708 20.9739 8.34375 20.9739H1.66667V2.63674H20V9.3048C20 9.76323 20.375 10.1383 20.8333 10.1383C20.9271 10.1383 21.0104 10.1279 21.0938 10.0966L22.1458 9.74239C23.2812 9.36731 24.5104 9.99244 24.875 11.1281C25.25 12.2637 24.625 13.4932 23.4896 13.8682Z" fill="black"/>
</svg>
