<svg width="60" height="59" viewBox="0 0 60 59" fill="none" xmlns="http://www.w3.org/2000/svg">
<g clip-path="url(#clip0)">
<path d="M45.1549 29.1207L44.1412 25.5006L45.1485 21.879C45.1998 21.6945 45.1447 21.4978 45.004 21.3629L42.2402 18.7146L41.2265 15.0944C41.1749 14.91 41.0247 14.7661 40.8325 14.7169L37.0601 13.7499L34.2963 11.1015C34.1555 10.9666 33.9505 10.9139 33.7586 10.9637L29.9875 11.9368L26.2152 10.9699C26.0232 10.9207 25.8182 10.9734 25.6776 11.1086L22.919 13.7618L19.1479 14.735C18.9558 14.7845 18.806 14.9287 18.7546 15.1132L17.7473 18.7347L14.9886 21.3879C14.8481 21.523 14.7934 21.7198 14.8449 21.9042L15.8587 25.5237L15.2344 27.7687C15.1551 28.0538 15.3316 28.3466 15.6286 28.4228C15.9256 28.4991 16.2307 28.3295 16.31 28.0443L16.9729 25.661C16.9981 25.5704 16.998 25.475 16.9726 25.3844L16.0036 21.9246L18.6406 19.3885C18.7097 19.3221 18.7592 19.2394 18.7844 19.1488L19.7474 15.687L23.352 14.7567C23.4464 14.7323 23.5325 14.6846 23.6015 14.6182L26.2385 12.0821L29.8444 13.0064C29.9388 13.0306 30.0382 13.0305 30.1326 13.0062L33.7373 12.0759L36.3791 14.6075C36.4483 14.6738 36.5344 14.7214 36.6287 14.7456L40.2348 15.6699L41.2038 19.1304C41.2291 19.2209 41.2789 19.3036 41.348 19.3699L43.9899 21.9014L43.027 25.3632C43.0018 25.4538 43.0018 25.5492 43.0272 25.6398L43.9963 29.1003L41.3592 31.6365C41.2902 31.7029 41.2406 31.7856 41.2154 31.8761L40.2525 35.3379L36.648 36.2681C36.5536 36.2924 36.4674 36.3402 36.3984 36.4066L33.7614 38.9428L30.1557 38.0179C30.0611 37.9936 29.9616 37.9937 29.8671 38.0181L26.2626 38.949L23.6208 36.4174C23.5515 36.3511 23.4654 36.3035 23.3711 36.2793L22.6167 36.0858C22.6162 36.0857 22.6158 36.0854 22.6153 36.0854C22.6147 36.0852 22.6142 36.0852 22.6137 36.085L19.7652 35.3543L18.7961 31.8945C18.7707 31.8039 18.7209 31.7213 18.6518 31.6551L16.7748 29.8567C16.5571 29.6482 16.2046 29.6486 15.9876 29.8575C15.7705 30.0664 15.7708 30.4047 15.9884 30.6132L17.7598 32.3103L18.7735 35.9297C18.8251 36.114 18.9753 36.2579 19.1674 36.3072L21.7894 36.9798L19.5422 45.029C19.4895 45.2176 19.5483 45.4189 19.6954 45.5538C19.8425 45.6886 20.0546 45.7359 20.2485 45.6766L23.8334 44.5826L26.3681 47.2509C26.4749 47.3634 26.6248 47.4252 26.7794 47.4252C26.8232 47.4252 26.8674 47.4202 26.911 47.41C27.1087 47.3639 27.2644 47.2178 27.317 47.0291L29.4966 39.2204L30.0123 39.0872L30.5007 39.2125L32.6826 47.0291C32.7353 47.2177 32.891 47.3638 33.0887 47.41C33.1323 47.4202 33.1765 47.4252 33.2203 47.4252C33.3748 47.4252 33.5248 47.3634 33.6316 47.2509L36.1664 44.5826L39.7514 45.6766C39.9453 45.7359 40.1574 45.6886 40.3044 45.5538C40.4515 45.4189 40.5103 45.2177 40.4576 45.029L39.5551 41.7957C39.4756 41.5107 39.1703 41.3415 38.8734 41.4179C38.5764 41.4942 38.4002 41.7873 38.4798 42.0724L39.1189 44.3622L36.1639 43.4604C35.9569 43.3972 35.7304 43.4554 35.584 43.6096L33.4946 45.8091L31.7421 39.531L33.7846 40.0549C33.9766 40.1041 34.1817 40.0514 34.3223 39.9161L37.0809 37.263L37.1337 37.2494L37.8297 39.7438C37.8963 39.9827 38.1212 40.1401 38.367 40.1401C38.4147 40.1401 38.4632 40.1342 38.5113 40.1218C38.8083 40.0454 38.9845 39.7525 38.905 39.4674L38.2087 36.972L40.8519 36.2899C41.044 36.2403 41.1938 36.0961 41.2452 35.9117L42.2525 32.2901L45.0112 29.6369C45.1518 29.5018 45.2065 29.305 45.1549 29.1207ZM26.5051 45.8091L24.4159 43.6096C24.2694 43.4555 24.043 43.3973 23.8359 43.4604L20.881 44.3621L22.8649 37.2556L22.94 37.2748L25.7036 39.9232C25.8094 40.0245 25.9514 40.0794 26.0969 40.0794C26.1451 40.0794 26.1937 40.0734 26.2414 40.061L28.2546 39.5412L26.5051 45.8091Z" fill="#030002"/>
<path d="M30.0001 15.3858C31.5476 15.3858 33.038 15.7 34.4298 16.3195C34.7089 16.4437 35.0397 16.3272 35.1689 16.0595C35.2983 15.7917 35.177 15.474 34.8982 15.3499C33.3585 14.6646 31.7106 14.3171 30.0001 14.3171C24.7333 14.3171 20.106 17.7197 18.7388 22.5943C18.7382 22.5959 18.7378 22.5976 18.7373 22.5993C18.7357 22.6049 18.734 22.6104 18.7325 22.6158C18.4708 23.5561 18.3381 24.5307 18.3381 25.5126C18.3381 28.0729 19.2141 30.4821 20.8713 32.4793C20.8724 32.4807 20.8736 32.482 20.8746 32.4833C20.8763 32.4852 20.8779 32.4872 20.8796 32.4891C23.1066 35.1705 26.4301 36.7081 30.0001 36.7081C36.4305 36.7081 41.662 31.6858 41.662 25.5126C41.662 22.1728 40.1253 19.032 37.4458 16.8956C37.2094 16.7071 36.8584 16.7382 36.6619 16.9653C36.4655 17.1924 36.498 17.5292 36.7345 17.7178C39.1585 19.6506 40.5488 22.4917 40.5488 25.5127C40.5488 31.0966 35.8167 35.6394 30.0001 35.6394C27.1735 35.6394 24.5177 34.5737 22.5481 32.6811H25.9266C26.234 32.6811 26.4832 32.4419 26.4832 32.1468V31.5411C26.9838 31.6058 27.371 31.7293 27.7414 32.0018C28.0831 32.2533 28.5051 32.3919 28.9295 32.3919H35.0386C35.9736 32.3919 36.7343 31.6616 36.7343 30.764C36.7343 30.4493 36.6408 30.1551 36.4791 29.9058C36.9126 29.6106 37.1961 29.125 37.1961 28.5771C37.1961 28.2454 37.0922 27.9365 36.914 27.6789C37.3156 27.3809 37.5747 26.9141 37.5747 26.3902C37.5747 26.06 37.4717 25.7523 37.2949 25.4955C37.6991 25.1977 37.9603 24.7293 37.9603 24.2034C37.9603 23.3058 37.1996 22.5755 36.2646 22.5755H32.8703C33.276 21.1591 33.2082 19.6789 32.6684 17.9805C32.4673 17.3478 31.8671 16.9227 31.1747 16.9227C30.7482 16.9227 30.3351 17.093 30.0413 17.39C29.7476 17.6871 29.5917 18.092 29.6138 18.5011C29.7157 20.3837 28.8444 21.0079 27.5254 21.9529C27.1941 22.1902 26.8397 22.4444 26.4822 22.7365C26.4724 22.4497 26.2277 22.2198 25.9265 22.2198H20.0216C21.4714 18.1627 25.4746 15.3858 30.0001 15.3858ZM28.1912 22.8093C29.5628 21.8266 30.8584 20.8985 30.7256 18.4456C30.7192 18.3262 30.7628 18.2126 30.8486 18.1258C30.9343 18.0391 31.0501 17.9914 31.1746 17.9914C31.3709 17.9914 31.5472 18.1151 31.6034 18.2923C32.1594 20.0418 32.1522 21.5108 31.5807 22.9155C31.5138 23.0799 31.5359 23.2654 31.6395 23.4112C31.7432 23.557 31.9153 23.6442 32.0992 23.6442H36.2645C36.5856 23.6442 36.8469 23.895 36.8469 24.2033C36.8469 24.5116 36.5856 24.7624 36.2645 24.7624H34.8476C34.5401 24.7624 34.2909 25.0017 34.2909 25.2968C34.2909 25.5919 34.5401 25.8311 34.8476 25.8311H35.8788C36.1999 25.8311 36.4612 26.0819 36.4612 26.3902C36.4612 26.6985 36.1999 26.9493 35.8788 26.9493H34.8476C34.5401 26.9493 34.2909 27.1885 34.2909 27.4836C34.2909 27.7788 34.5401 28.018 34.8476 28.018H35.5002C35.8213 28.018 36.0826 28.2688 36.0826 28.5771C36.0826 28.8854 35.8213 29.1362 35.5002 29.1362H34.4688C34.1613 29.1362 33.9122 29.3755 33.9122 29.6706C33.9122 29.9657 34.1613 30.205 34.4688 30.205H35.0384C35.3595 30.205 35.6208 30.4558 35.6208 30.7641C35.6208 31.0724 35.3595 31.3232 35.0384 31.3232H28.9293C28.7484 31.3232 28.5669 31.263 28.4185 31.1537C27.788 30.6896 27.1272 30.5324 26.483 30.4638V24.2085C27.0313 23.6408 27.6202 23.2185 28.1912 22.8093ZM25.3699 24.1256C25.3699 24.1261 25.3698 24.1265 25.3698 24.1269V31.0801C25.3698 31.0806 25.3699 31.081 25.3699 31.0814V31.6122H21.5796C20.1865 29.8463 19.4513 27.743 19.4513 25.5125C19.4513 24.7612 19.5381 24.015 19.7076 23.2884H25.3699V24.1256Z" fill="#030002"/>
</g>
<path d="M59.5 29.28C59.5 44.8906 46.3118 57.58 30 57.58C13.6882 57.58 0.5 44.8906 0.5 29.28C0.5 13.6693 13.6882 0.97995 30 0.97995C46.3118 0.97995 59.5 13.6693 59.5 29.28Z" stroke="#030002"/>
<defs>
<clipPath id="clip0">
<rect width="38" height="36.48" fill="white" transform="translate(11 10.9453)"/>
</clipPath>
</defs>
</svg>
