<svg xmlns="http://www.w3.org/2000/svg" viewBox="0 0 33.5 33.51"><defs><style>.cls-1{fill-rule:evenodd;}</style></defs><title>seconds-11</title><g id="Слой_2" data-name="Слой 2"><g id="Слой_1-2" data-name="Слой 1"><path class="cls-1" d="M33.47,33.51H0V20.24c0-2.81-.15-5.74.54-7.89A17.11,17.11,0,0,1,8.07,2.51,18.86,18.86,0,0,1,13,.44c.66-.19,1.25-.11,2-.27a11.56,11.56,0,0,1,3-.11c.55.12,1.17.07,1.74.22A23.59,23.59,0,0,1,23,1.21a17.21,17.21,0,0,1,9.47,9.63,23.84,23.84,0,0,1,.87,3.26A17.21,17.21,0,0,1,33.47,18V33.51ZM1.1,24.86h9.41A3.17,3.17,0,0,1,11,24c.48-.78.77-1.61,1.25-2.39A7.34,7.34,0,0,0,13,20.46V17.85h.6v-.05h.05a13.18,13.18,0,0,1,.44-2.61V12.46h1.09l.54-7.56h.49V1.7h1.14V4.9h.49l.54,7.56h1.09a23.88,23.88,0,0,0,.49,5.38h.6v2.61a5.29,5.29,0,0,0,.38.54c.4.65.71,1.33,1.09,2,.18.29.82,1.79,1,1.9h9.41V18.17A17.6,17.6,0,0,0,32.17,14a21.52,21.52,0,0,0-.76-2.77,15.83,15.83,0,0,0-9.19-9.08C21,1.67,17.84.78,16,1.21l-1.2.05a23,23,0,0,0-3.37.82A18.7,18.7,0,0,0,7.74,4c-.65.46-1.21,1-1.85,1.52A7.33,7.33,0,0,0,4.64,7a17.41,17.41,0,0,0-2.88,5.28c-.31.94-.37,2-.6,3L1.1,18.45ZM13.51,1.7H14.6V2.78H13.51Zm8.11,1.58H22.7V4.41H21.61ZM11.33,4.9h1.09V6H11.33ZM16.72,6,16.5,9.53h.05c.23-.3.44-.23.44-.82C16.69,8.22,17,6.49,16.72,6Zm4.35.54h1.09V7.62H21.07ZM5.94,7.08H7V8.17H5.94Zm18.33,0h1.14V8.17H24.28ZM13,7.62h1.09V8.71H13Zm14.58,2.66h1.09v1.14H27.54ZM17,10.51a4.27,4.27,0,0,0-.38.33h-.05c-.05.05.05.05.05.05l.49.38V11C17.09,10.89,17.11,10.61,17,10.51Zm-7.34.33h1.14v1.09A4,4,0,0,1,9.75,12,4.23,4.23,0,0,1,9.7,10.83Zm6.58,1.63h.54v-.05L16.28,12Zm-12,1.09H5.4v1.09H4.31Zm10.83,0v1.09h3.21V13.55Zm.49,2.18,1.09,1.63h.05V17.3a7.39,7.39,0,0,0,1.09-1.58Zm-.92,2.12h1v-.05c-.28-.29-.44-.91-.82-1.09A8.39,8.39,0,0,1,14.7,17.85Zm4.08,0c0-.39-.15-.71-.16-1.14h-.11a7.48,7.48,0,0,1-.71,1.14Zm-4.73,1.09V20h5.39V18.94Zm2.12,2.72v-.54H14.87v.05C15.37,21.51,15.22,21.67,16.17,21.65Zm1.14-.54v.54h.82a1.78,1.78,0,0,1,.49-.49v-.05Zm-3.7.38-.49.92h.27a3.17,3.17,0,0,1,.92-.22v-.05Zm6.2,0c-.14.19-.69.61-.54.71a2.57,2.57,0,0,0,1.09.22v-.05C20.14,22.12,20.08,21.7,19.82,21.49Zm-4.35,1.25a15.85,15.85,0,0,0-1,2.12h4.62v-.11c-.26-.28-.86-1.92-1-2Zm-1.8.71c-.22.13-.63.05-.76.27.21.17.29.48.54.6l.38-.87Zm6,0a1.56,1.56,0,0,0,.49.87v-.05a3.18,3.18,0,0,0,.49-.65h-.27A1.91,1.91,0,0,0,19.65,23.45Zm-7.67,1-.22.44h.6v-.05C12.23,24.67,12.18,24.51,12,24.43Zm9.41,0c-.08.17-.19.27-.27.44h.6v-.05a.65.65,0,0,1-.16-.33ZM1.1,26v6.47H32.39V26Z"/></g></g></svg>