<svg width="60" height="51" viewBox="0 0 60 51" fill="none" xmlns="http://www.w3.org/2000/svg">
<path d="M42.4242 0.969727H36.197C36.197 2.62672 35.5398 4.21606 34.3695 5.38915C33.1993 6.56224 31.6115 7.22329 29.9545 7.2273C28.2976 7.22329 26.7098 6.56224 25.5396 5.38915C24.3693 4.21606 23.7121 2.62672 23.7121 0.969727L17.4697 0.969727L0 10.9849L4.98485 24.7425L12.4848 22.1818V50.9697H47.4242V22.1818L54.9091 24.6818L59.8939 10.9243L42.4242 0.969727ZM53.3939 21.6061L48.2121 19.8788L44.9242 18.7879V48.5152H14.9697V18.7728L11.6818 19.8637L6.5 21.6061L3.0303 12.1061L18.1818 3.46973H21.6212C22.1568 5.27649 23.2619 6.86181 24.7718 7.98944C26.2817 9.11707 28.1155 9.72664 30 9.7273C31.8845 9.72664 33.7183 9.11707 35.2282 7.98944C36.7381 6.86181 37.8432 5.27649 38.3788 3.46973H41.8182L56.8939 12.1061L53.3939 21.6061ZM27.9697 27.7879L25.6818 23.9546L19.9697 33.4849H39.9394L32.3636 20.1364L27.9697 27.7879ZM26.1515 30.9849H24.3788L25.6818 28.8182L26.5606 30.3334L26.1515 30.9849ZM29.0303 30.9849L32.3182 25.2122L35.6212 31.0152L29.0303 30.9849Z" fill="black"/>
</svg>
