<svg width="40" height="40" viewBox="0 0 40 40" fill="none" xmlns="http://www.w3.org/2000/svg">
<path d="M20 40C31.0457 40 40 31.0457 40 20C40 8.95431 31.0457 0 20 0C8.95431 0 0 8.95431 0 20C0 31.0457 8.95431 40 20 40Z" fill="#4D76A1"/>
<path fill-rule="evenodd" clip-rule="evenodd" d="M19.7572 26.757H21.1086C21.1086 26.757 21.5168 26.7122 21.7252 26.4875C21.9171 26.2812 21.9109 25.8939 21.9109 25.8939C21.9109 25.8939 21.8845 24.0806 22.7261 23.8135C23.5558 23.5505 24.6211 25.5661 25.7503 26.3411C26.6042 26.9276 27.253 26.799 27.253 26.799L30.2723 26.757C30.2723 26.757 31.8517 26.6597 31.1028 25.4179C31.0414 25.3163 30.6667 24.4992 28.858 22.8203C26.9648 21.0632 27.2183 21.3474 29.4988 18.3079C30.8877 16.4568 31.4429 15.3267 31.2695 14.8426C31.1041 14.3816 30.0826 14.5035 30.0826 14.5035L26.6831 14.5247C26.6831 14.5247 26.4311 14.4903 26.2442 14.602C26.0615 14.7116 25.944 14.9669 25.944 14.9669C25.944 14.9669 25.4059 16.3994 24.6883 17.6176C23.1746 20.1881 22.5693 20.3238 22.3219 20.1642C21.7464 19.7922 21.8901 18.6697 21.8901 17.8723C21.8901 15.3813 22.2679 14.3426 21.1544 14.0738C20.7848 13.9845 20.5129 13.9255 19.5678 13.916C18.3549 13.9034 17.3282 13.9197 16.7469 14.2045C16.3601 14.3939 16.0618 14.8159 16.2435 14.8402C16.4682 14.8703 16.9771 14.9774 17.2468 15.3448C17.5952 15.8187 17.5829 16.8831 17.5829 16.8831C17.5829 16.8831 17.7831 19.8155 17.1155 20.1798C16.6572 20.4297 16.0286 19.9195 14.6791 17.5875C13.9876 16.3929 13.4655 15.0725 13.4655 15.0725C13.4655 15.0725 13.3648 14.8258 13.1853 14.6938C12.9673 14.5339 12.6629 14.4829 12.6629 14.4829L9.43244 14.5041C9.43244 14.5041 8.9475 14.5176 8.76948 14.7285C8.6111 14.916 8.75689 15.3039 8.75689 15.3039C8.75689 15.3039 11.286 21.2209 14.1496 24.2027C16.7754 26.9365 19.7572 26.757 19.7572 26.757Z" fill="white"/>
</svg>
