<svg width="40" height="40" viewBox="0 0 40 40" fill="none" xmlns="http://www.w3.org/2000/svg">
<rect width="40" height="40" rx="20" fill="#0DC143"/>
<path d="M28.0394 11.9953C25.9448 9.85667 23.0494 8.69568 20.0924 8.69568C13.8088 8.69568 8.75728 13.7674 8.81889 19.9389C8.81889 21.8943 9.37332 23.7885 10.2974 25.4994L8.69568 31.3044L14.6713 29.7768C16.3346 30.6933 18.1827 31.1211 20.0308 31.1211C26.2528 31.1211 31.3044 26.0494 31.3044 19.8778C31.3044 16.8837 30.1339 14.0729 28.0394 11.9953ZM20.0924 29.2268C18.4291 29.2268 16.7658 28.7991 15.3489 27.9436L14.9793 27.7603L11.4063 28.6769L12.3303 25.1939L12.0839 24.8273C9.37332 20.4889 10.667 14.745 15.1025 12.0564C19.538 9.36783 25.2672 10.651 27.9778 15.0506C30.6883 19.4501 29.3946 25.1328 24.9592 27.8214C23.5423 28.738 21.8173 29.2268 20.0924 29.2268ZM25.5136 22.4442L24.8359 22.1387C24.8359 22.1387 23.8503 21.711 23.2342 21.4054C23.1726 21.4054 23.111 21.3443 23.0494 21.3443C22.8646 21.3443 22.7414 21.4054 22.6182 21.4665C22.6182 21.4665 22.5566 21.5276 21.6941 22.5053C21.6325 22.6275 21.5093 22.6886 21.3861 22.6886H21.3245C21.2629 22.6886 21.1397 22.6275 21.0781 22.5664L20.7701 22.4442C20.0924 22.1387 19.4764 21.7721 18.9836 21.2832C18.8604 21.161 18.6755 21.0388 18.5523 20.9166C18.1211 20.4889 17.6899 20 17.3819 19.4501L17.3202 19.3279C17.2586 19.2668 17.2586 19.2057 17.197 19.0835C17.197 18.9612 17.197 18.839 17.2586 18.7779C17.2586 18.7779 17.5051 18.4724 17.6899 18.2891C17.8131 18.1669 17.8747 17.9836 17.9979 17.8614C18.1211 17.6781 18.1827 17.4336 18.1211 17.2503C18.0595 16.9448 17.3202 15.295 17.1354 14.9283C17.0122 14.745 16.889 14.6839 16.7042 14.6228H16.5194C16.3962 14.6228 16.2114 14.6228 16.0266 14.6228C15.9034 14.6228 15.7801 14.6839 15.6569 14.6839L15.5953 14.745C15.4721 14.8061 15.3489 14.9283 15.2257 14.9895C15.1025 15.1117 15.0409 15.2339 14.9177 15.3561C14.4865 15.906 14.24 16.5782 14.24 17.2503C14.24 17.7392 14.3633 18.228 14.5481 18.6557L14.6097 18.839C15.1641 20 15.9034 21.0388 16.889 21.9554L17.1354 22.1998C17.3202 22.3831 17.5051 22.5053 17.6283 22.6886C18.922 23.7885 20.4005 24.5829 22.0638 25.0106C22.2486 25.0717 22.495 25.0717 22.6798 25.1328C22.8646 25.1328 23.111 25.1328 23.2958 25.1328C23.6039 25.1328 23.9735 25.0106 24.2199 24.8884C24.4047 24.7662 24.5279 24.7662 24.6511 24.644L24.7743 24.5218C24.8976 24.3996 25.0208 24.3385 25.144 24.2162C25.2672 24.094 25.3904 23.9718 25.452 23.8496C25.5752 23.6052 25.6368 23.2997 25.6984 22.9942C25.6984 22.8719 25.6984 22.6886 25.6984 22.5664C25.6984 22.5664 25.6368 22.5053 25.5136 22.4442Z" fill="white"/>
</svg>
